<svg width="241" height="36" viewBox="0 0 241 36" fill="none" xmlns="http://www.w3.org/2000/svg">
<path d="M26.9922 13.3594C26.9922 17.8945 25.6211 21.3047 22.8789 23.5898C20.1484 25.8633 16.082 27 10.6797 27H0.783203V23.6953H4.33398V3.81445H0.783203V0.509766H10.8555C16.2812 0.509766 20.3242 1.53516 22.9844 3.58594C25.6562 5.63672 26.9922 8.89453 26.9922 13.3594ZM22.6328 13.5352C22.6328 11.2852 22.2344 9.45117 21.4375 8.0332C20.6523 6.61523 19.3984 5.56055 17.6758 4.86914C15.9648 4.16602 13.7031 3.81445 10.8906 3.81445H8.3418V23.6953H10.8555C14.9336 23.6953 17.916 22.8809 19.8027 21.252C21.6895 19.6113 22.6328 17.0391 22.6328 13.5352Z" fill="white" fill-opacity="0.5"/>
<path d="M45.8887 15.0469V23.7656H48.9824V27H42.6895V24.7324C40.9316 26.4551 38.9746 27.3164 36.8184 27.3164C35.6816 27.3164 34.6387 27.0527 33.6895 26.5254C32.752 25.998 31.9961 25.2949 31.4219 24.416C30.8594 23.5254 30.5781 22.541 30.5781 21.4629C30.5781 20.3027 30.8887 19.2715 31.5098 18.3691C32.1426 17.4551 32.9922 16.752 34.0586 16.2598C35.125 15.7676 36.1973 15.5215 37.2754 15.5215C39.0801 15.5215 40.7617 16.0488 42.3203 17.1035V15.1172C42.3203 13.6758 42.0156 12.6445 41.4062 12.0234C40.7969 11.4023 39.7949 11.0918 38.4004 11.0918C37.416 11.0918 36.5898 11.2734 35.9219 11.6367C35.2656 11.9883 34.7207 12.5273 34.2871 13.2539L30.8066 12.3926C31.5918 10.9277 32.6523 9.83789 33.9883 9.12305C35.3242 8.39648 36.9121 8.0332 38.752 8.0332C41.2246 8.0332 43.0293 8.5957 44.166 9.7207C45.3145 10.8457 45.8887 12.6211 45.8887 15.0469ZM37.3105 24.5215C39.0918 24.5215 40.7617 23.7773 42.3203 22.2891V20.127C40.7383 18.8965 39.1562 18.2812 37.5742 18.2812C36.6133 18.2812 35.7812 18.5859 35.0781 19.1953C34.3867 19.793 34.041 20.5488 34.041 21.4629C34.041 22.3418 34.3457 23.0742 34.9551 23.6602C35.5645 24.2344 36.3496 24.5215 37.3105 24.5215Z" fill="white" fill-opacity="0.5"/>
<path d="M56.3477 11.7773L60.3379 22.2539L64.3105 11.7773H61.7441V8.52539H70.6035V11.7773H67.791L61.9023 27.3164H58.6152L52.6035 11.7773H49.334V8.52539H58.7559V11.7773H56.3477Z" fill="white" fill-opacity="0.5"/>
<path d="M78.8125 11.7773L82.8203 22.2188L86.7051 11.7773H84.2441V8.52539H93.0684V11.7773H90.3438L81.2207 35.2793H75.0684V32.1152H78.707L80.9043 26.6836L74.8574 11.7773H71.7637V8.52539H81.0098V11.7773H78.8125Z" fill="white" fill-opacity="0.5"/>
<path d="M122.758 8.24414V3.81445H111.42V11.707H121.281V15.0117H111.42V23.6953H122.758V18.8613H126.027V27H104.002V23.6953H107.412V3.81445H104.002V0.509766H126.027V8.24414H122.758Z" fill="white" fill-opacity="0.5"/>
<path d="M146.295 14.5723V23.7656H149.389V27H142.656V14.8008C142.656 13.6406 142.486 12.8086 142.146 12.3047C141.818 11.8008 141.273 11.5488 140.512 11.5488C138.895 11.5488 137.078 12.3457 135.062 13.9395V23.7656H138.244V27H128.225V23.7656H131.477V11.7773H128.225V8.52539H135.062V10.7578C137.324 9.10547 139.451 8.2793 141.443 8.2793C143.096 8.2793 144.314 8.78906 145.1 9.80859C145.896 10.8281 146.295 12.416 146.295 14.5723Z" fill="white" fill-opacity="0.5"/>
<path d="M167.107 11.1973V8.52539H174.051V11.7773H170.711V25.6289C170.711 28.8516 169.896 31.3359 168.268 33.082C166.65 34.8398 164.283 35.7188 161.166 35.7188C158.213 35.7188 155.693 34.8867 153.607 33.2227L155.945 30.6035C156.789 31.2246 157.633 31.6875 158.477 31.9922C159.332 32.3086 160.264 32.4668 161.271 32.4668C163.1 32.4668 164.529 31.8984 165.561 30.7617C166.592 29.625 167.107 28.1191 167.107 26.2441V24.5215C166.311 25.459 165.297 26.1973 164.066 26.7363C162.848 27.2754 161.629 27.5449 160.41 27.5449C158.699 27.5449 157.158 27.1113 155.787 26.2441C154.428 25.377 153.361 24.2285 152.588 22.7988C151.826 21.3574 151.445 19.7812 151.445 18.0703C151.445 16.3242 151.844 14.7012 152.641 13.2012C153.449 11.7012 154.551 10.5059 155.945 9.61523C157.34 8.72461 158.887 8.2793 160.586 8.2793C161.805 8.2793 162.941 8.51953 163.996 9C165.062 9.48047 166.1 10.2129 167.107 11.1973ZM161.096 24.293C162.244 24.293 163.281 24.0059 164.207 23.4316C165.133 22.8574 165.854 22.084 166.369 21.1113C166.885 20.1387 167.143 19.0898 167.143 17.9648C167.143 16.9102 166.885 15.8965 166.369 14.9238C165.854 13.9512 165.139 13.166 164.225 12.5684C163.311 11.9707 162.291 11.6719 161.166 11.6719C160.064 11.6719 159.062 11.959 158.16 12.5332C157.258 13.1074 156.555 13.8809 156.051 14.8535C155.547 15.8262 155.295 16.875 155.295 18C155.295 19.1484 155.535 20.2031 156.016 21.1641C156.496 22.125 157.176 22.8867 158.055 23.4492C158.945 24.0117 159.959 24.293 161.096 24.293Z" fill="white" fill-opacity="0.5"/>
<path d="M195.285 17.7891C195.285 19.582 194.857 21.2227 194.002 22.7109C193.146 24.1992 191.98 25.377 190.504 26.2441C189.027 27.1113 187.393 27.5449 185.6 27.5449C183.748 27.5449 182.078 27.1113 180.59 26.2441C179.102 25.377 177.941 24.1992 177.109 22.7109C176.289 21.2227 175.879 19.582 175.879 17.7891C175.879 15.9141 176.289 14.2383 177.109 12.7617C177.941 11.2852 179.096 10.1309 180.572 9.29883C182.049 8.45508 183.725 8.0332 185.6 8.0332C187.416 8.0332 189.062 8.47852 190.539 9.36914C192.016 10.248 193.176 11.4316 194.02 12.9199C194.863 14.4082 195.285 16.0312 195.285 17.7891ZM185.6 24.0117C186.678 24.0117 187.668 23.7305 188.57 23.168C189.473 22.6055 190.176 21.8496 190.68 20.9004C191.184 19.9512 191.436 18.9141 191.436 17.7891C191.436 16.6875 191.184 15.6621 190.68 14.7129C190.176 13.7637 189.473 13.002 188.57 12.4277C187.668 11.8418 186.666 11.5488 185.564 11.5488C184.486 11.5488 183.496 11.8359 182.594 12.4102C181.691 12.9727 180.982 13.7344 180.467 14.6953C179.951 15.6562 179.693 16.6875 179.693 17.7891C179.693 18.8906 179.951 19.9219 180.467 20.8828C180.982 21.8438 181.697 22.6055 182.611 23.168C183.525 23.7305 184.521 24.0117 185.6 24.0117Z" fill="white" fill-opacity="0.5"/>
<path d="M215.623 14.5723V23.7656H218.717V27H211.984V14.8008C211.984 13.6406 211.814 12.8086 211.475 12.3047C211.146 11.8008 210.602 11.5488 209.84 11.5488C208.223 11.5488 206.406 12.3457 204.391 13.9395V23.7656H207.572V27H197.553V23.7656H200.805V11.7773H197.553V8.52539H204.391V10.7578C206.652 9.10547 208.779 8.2793 210.771 8.2793C212.424 8.2793 213.643 8.78906 214.428 9.80859C215.225 10.8281 215.623 12.416 215.623 14.5723Z" fill="white" fill-opacity="0.5"/>
<path d="M240.285 18.6855H224.799C225.021 20.4551 225.707 21.8555 226.855 22.8867C228.004 23.9062 229.41 24.416 231.074 24.416C232.293 24.416 233.424 24.1641 234.467 23.6602C235.51 23.1562 236.383 22.3828 237.086 21.3398L240.285 22.7812C239.277 24.3516 237.953 25.541 236.312 26.3496C234.684 27.1465 232.908 27.5449 230.986 27.5449C228.994 27.5449 227.225 27.1289 225.678 26.2969C224.131 25.4648 222.924 24.3047 222.057 22.8164C221.201 21.3281 220.773 19.6523 220.773 17.7891C220.773 15.9375 221.195 14.2676 222.039 12.7793C222.895 11.291 224.061 10.1309 225.537 9.29883C227.014 8.45508 228.643 8.0332 230.424 8.0332C232.369 8.0332 234.062 8.4668 235.504 9.33398C236.957 10.1895 238.1 11.4199 238.932 13.0254C239.764 14.6191 240.215 16.5059 240.285 18.6855ZM230.494 11.0566C229.123 11.0566 227.922 11.5195 226.891 12.4453C225.859 13.3594 225.197 14.5723 224.904 16.084H236.471C236.131 14.5723 235.41 13.3594 234.309 12.4453C233.207 11.5195 231.936 11.0566 230.494 11.0566Z" fill="white" fill-opacity="0.5"/>
<path fill-rule="evenodd" clip-rule="evenodd" d="M6 3H2V2H10.5V3H7.00559L7.24448 24.5H10.5V25.5H3V24.5H6V3Z" fill="black"/>
<path fill-rule="evenodd" clip-rule="evenodd" d="M106 1.5H112.5V2.5H109.75V24.5H112.5V25.5H106V24.5H108.5V2.5H106V1.5Z" fill="black"/>
</svg>
