<svg width="35" height="20" viewBox="0 0 35 20" fill="none" xmlns="http://www.w3.org/2000/svg">
<path d="M17.7656 9.90625C17.7656 12.9297 16.8516 15.2031 15.0234 16.7266C13.2031 18.2422 10.4922 19 6.89062 19H0.292969V16.7969H2.66016V3.54297H0.292969V1.33984H7.00781C10.625 1.33984 13.3203 2.02344 15.0938 3.39062C16.875 4.75781 17.7656 6.92969 17.7656 9.90625ZM14.8594 10.0234C14.8594 8.52344 14.5938 7.30078 14.0625 6.35547C13.5391 5.41016 12.7031 4.70703 11.5547 4.24609C10.4141 3.77734 8.90625 3.54297 7.03125 3.54297H5.33203V16.7969H7.00781C9.72656 16.7969 11.7148 16.2539 12.9727 15.168C14.2305 14.0742 14.8594 12.3594 14.8594 10.0234ZM31.8516 6.49609V3.54297H24.293V8.80469H30.8672V11.0078H24.293V16.7969H31.8516V13.5742H34.0312V19H19.3477V16.7969H21.6211V3.54297H19.3477V1.33984H34.0312V6.49609H31.8516Z" fill="black"/>
<path d="M4 18V2.5H7H1M4 18H7M4 18H1M23 2.5V10.25M23 2.5H33V5.5M23 2.5V18V10.25M23 10.25H30M33 18V14.5" stroke="white"/>
<path d="M23 18H28L33 18" stroke="white"/>
</svg>
